<svg width="1440" height="870" viewBox="0 0 1440 870" fill="none" xmlns="http://www.w3.org/2000/svg">
<rect width="1440" height="870" fill="#E6FCFD"/>
<mask id="mask0_358_715" style="mask-type:alpha" maskUnits="userSpaceOnUse" x="0" y="0" width="1440" height="870">
<rect width="1440" height="870" fill="#E6FCFD"/>
</mask>
<g mask="url(#mask0_358_715)">
<g filter="url(#filter0_f_358_715)">
<path fill-rule="evenodd" clip-rule="evenodd" d="M981.03 950.057C1110.31 953.176 1242.43 946.937 1366.04 991.178C1373.41 993.787 1381.51 989.987 1384.18 982.613C1386.79 975.24 1382.99 967.129 1375.62 964.464C1249.12 919.202 1114 924.874 981.71 921.697C973.889 921.471 967.371 927.71 967.201 935.537C966.975 943.364 973.209 949.83 981.03 950.057Z" fill="#B0F7F9" stroke="#B0F7F9" stroke-width="171"/>
<path fill-rule="evenodd" clip-rule="evenodd" d="M969.412 762.221C1009.71 725.116 1053.69 697.318 1106.85 683.541C1114.45 681.578 1118.98 673.836 1117.06 666.258C1115.07 658.681 1107.31 654.126 1099.77 656.089C1041.96 671.063 994.066 701.021 950.254 741.343C944.473 746.641 944.076 755.619 949.404 761.382C954.675 767.139 963.687 767.519 969.412 762.221Z" fill="#B0F7F9" stroke="#B0F7F9" stroke-width="171"/>
<path fill-rule="evenodd" clip-rule="evenodd" d="M857.306 357.117C875.783 293.734 912.17 244.151 967.941 208.344C974.515 204.118 976.443 195.338 972.192 188.753C967.998 182.168 959.212 180.251 952.637 184.477C890.915 224.123 850.561 278.993 830.1 349.171C827.89 356.681 832.255 364.565 839.736 366.754C847.274 368.949 855.152 364.627 857.306 357.117Z" fill="#B0F7F9" stroke="#B0F7F9" stroke-width="171"/>
<path fill-rule="evenodd" clip-rule="evenodd" d="M220.53 271.097C209.534 284.046 199.672 297.999 191.284 312.854C187.543 319.467 180.968 333.522 179.948 345.575C178.815 358.416 183.178 369.249 194.4 374.955C209.307 382.522 221.21 381.733 230.391 377.156C239.233 372.76 246.147 364.122 250.512 352.54C258.843 330.402 257.596 296.57 253.232 277.263C264.964 265.148 277.83 254.161 291.603 244.394C394.189 171.652 544.669 198.474 660.462 307.238C700.986 345.32 720.483 425.293 730.629 511.58C746.442 645.93 737.43 795.985 736.183 839.948C735.899 850.804 736.92 857.247 737.486 858.535C740.15 864.865 744.854 866.509 748.142 867.133C752.903 867.984 756.7 867.077 759.76 865.489C763.898 863.311 767.299 859.476 768.886 853.56C769.736 850.293 769.962 845.745 769.849 840.895C769.736 837.532 769.055 833.856 769.736 831.446C774.156 816.007 779.484 800.931 784.699 785.747C802.099 734.706 824.6 686.875 849.595 639.101C929 487.298 1005.8 326.903 1135.99 211.247C1141.82 206.058 1142.39 197.085 1137.18 191.231C1132.02 185.378 1123.06 184.845 1117.17 190.04C984.374 307.981 905.479 471.139 824.486 625.948C803.232 666.587 783.735 707.283 767.525 749.85C769.169 674.55 768.545 570.318 754.773 478.093C742.53 396.072 719.236 323.585 679.845 286.564C553 167.415 387.558 141.568 275.223 221.258C263.207 229.789 251.759 239.17 241.104 249.346C182.329 143.14 56.504 100.572 -54.6976 151.369C-61.839 154.619 -64.9563 163.036 -61.7256 170.155C-58.4383 177.273 -50.0503 180.415 -42.9089 177.165C57.2972 131.393 170.937 172.242 220.53 271.097ZM228.747 306.654C224.157 313.143 219.906 319.87 215.938 326.824C213.841 330.556 210.214 337.731 208.683 344.752C208.343 346.397 208.287 348.972 208.287 350.163C212.198 352.092 215.258 353.022 217.752 351.769C220.869 350.226 222.456 346.596 223.987 342.54C227.841 332.365 229.088 318.877 228.747 306.654Z" fill="#B0F7F9" stroke="#B0F7F9" stroke-width="171"/>
</g>
</g>
<defs>
<filter id="filter0_f_358_715" x="-268.51" y="-75.5293" width="1859.02" height="1273.04" filterUnits="userSpaceOnUse" color-interpolation-filters="sRGB">
<feFlood flood-opacity="0" result="BackgroundImageFix"/>
<feBlend mode="normal" in="SourceGraphic" in2="BackgroundImageFix" result="shape"/>
<feGaussianBlur stdDeviation="60" result="effect1_foregroundBlur_358_715"/>
</filter>
</defs>
</svg>
