<svg width="1440" height="1852" viewBox="0 0 1440 1852" fill="none" xmlns="http://www.w3.org/2000/svg">
<mask id="path-1-outside-1_110_13548" maskUnits="userSpaceOnUse" x="-339.584" y="-94.2005" width="2280.16" height="2306.1" fill="black">
<rect fill="white" x="-339.584" y="-94.2005" width="2280.16" height="2306.1"/>
<path fill-rule="evenodd" clip-rule="evenodd" d="M259.789 1181.61C300.643 1377.85 424.156 1511.3 578.071 1643.6C604.064 1665.94 669.48 1718.17 731.331 1743.66C775.063 1761.69 817.125 1765.82 844.051 1740.81C867.6 1718.96 869.751 1686.51 858.837 1650.52C835.149 1572.37 749.839 1476.74 721.38 1449.76C593.146 1328.26 437.934 1233.13 272.536 1170.74C270.185 1158.65 268.137 1146.28 266.413 1133.65C261.281 1095.61 259.045 1049.77 267.274 1007.62C275.261 966.66 293.128 929.114 328.564 906.416C402.49 859.038 514.401 875.413 630.441 918.782C655.738 928.215 681.191 938.966 706.542 950.672C710.399 968.803 716.365 987.767 724.1 1007.28C784.097 1158.7 947.742 1343.49 1004.14 1392.03C1029.25 1413.65 1074.91 1454.04 1120.21 1470.77C1152.59 1482.74 1184.78 1482.81 1210.28 1458.58C1233.01 1437.01 1234.44 1405.69 1222.9 1371.08C1197.97 1296.35 1112.05 1205.56 1082.37 1177.82C1014.92 1114.73 870.224 1011.31 719.179 940.43C712.343 903.793 715.409 871.522 733.379 847.163C758.36 813.271 806.737 806.394 864.001 813.545C881.272 815.708 899.338 819.153 917.801 823.661C918.619 825.045 919.436 826.388 920.254 827.772C986.608 938.338 1099.62 1047.98 1153.63 1091.88C1178 1111.69 1224.62 1144.51 1268.86 1156.17C1300.44 1164.46 1330.79 1162.02 1352.37 1139.15C1374.54 1115.67 1369.1 1085.99 1351.15 1057.23C1326.62 1018.03 1278.91 980.586 1261.1 966.798C1210.97 927.929 1059.3 844.662 927.384 811C908.504 778.22 894.071 745.508 887.143 714.642C879.782 682.07 880.781 651.591 894.226 625.554C927.446 561.362 1005.06 554.695 1091.38 573.637C1117.66 579.405 1144.75 587.59 1171.73 597.453C1171.46 626.238 1179.96 658.241 1194.58 690.845C1229.05 767.656 1297.09 848.117 1357.87 896.501C1378.83 913.202 1416.67 940.099 1452.61 948.667C1478.6 954.877 1503.6 951.665 1521.86 930.73C1544.06 905.307 1541.97 874.558 1528.18 844.268C1508.95 802.153 1466.78 760.921 1444.73 738.935C1401.4 695.791 1295.82 629.008 1186.73 587.48C1187.88 575.768 1190.87 564.793 1196.01 554.732C1215.29 516.837 1264.44 493.483 1356.59 494.304C1401.21 494.722 1445.68 499.796 1488.27 513.19C1549.66 532.468 1603.44 563.012 1656.6 598.533C1659.96 600.759 1664.51 599.872 1666.74 596.504C1669 593.156 1668.11 588.591 1664.75 586.365C1610.44 550.069 1555.4 518.939 1492.67 499.241C1448.71 485.429 1402.81 480.125 1356.77 479.683C1256.47 478.791 1203.98 506.886 1182.97 548.114C1177.62 558.656 1174.29 570.116 1172.74 582.293C1146.47 572.825 1120.15 564.97 1094.55 559.37C1000.78 538.787 917.319 549.146 881.253 618.873C854.619 670.381 870.987 737.898 908.072 806.411C893.631 803.262 879.515 800.746 865.872 799.043C802.387 791.109 749.305 800.944 721.619 838.484C703.189 863.497 698.292 896.127 703.442 933.182C680.834 922.954 658.142 913.492 635.577 905.083C514.594 859.882 397.791 844.713 320.688 894.12C289.468 914.12 270.377 944.401 259.486 978.846C243.675 1029.05 245.519 1088.17 251.949 1135.65C253.277 1145.52 254.808 1155.26 256.542 1164.82C238.006 1158.1 219.356 1151.76 200.592 1145.87C154.191 1131.28 97.8217 1115.65 43.8316 1115.01C6.94251 1114.59 -28.8323 1121.13 -59.8462 1139.35C-104.299 1165.39 -121.909 1206.81 -124.71 1252.1C-127.441 1295.92 -116.133 1343.39 -102.628 1383.22C-43.5189 1557.55 79.3175 1707.09 254.168 1774.99C257.903 1776.44 262.138 1774.57 263.621 1770.81C265.083 1767.07 263.247 1762.82 259.471 1761.37C88.7095 1695.05 -31.0535 1548.77 -88.7852 1378.49C-101.734 1340.36 -112.725 1294.93 -110.136 1252.95C-107.614 1212.49 -92.2423 1175.23 -52.4999 1151.95C-16.4487 1130.8 26.583 1126.96 69.7812 1131.08C114.015 1135.29 158.448 1147.93 196.186 1159.82C217.533 1166.55 238.768 1173.82 259.789 1181.61ZM1186.25 602.894C1187.01 628.303 1195.11 656.285 1207.92 684.824C1241.47 759.633 1307.79 837.928 1366.98 885.051C1386.74 900.772 1422.2 926.41 1456.02 934.456C1476.54 939.344 1496.47 937.653 1510.88 921.142C1529.02 900.334 1526.15 875.147 1514.86 850.352C1496.38 809.871 1455.6 770.441 1434.39 749.301C1392.56 707.667 1291.45 643.638 1186.25 602.894ZM938.122 828.968C1004.12 934.954 1111.05 1038.42 1162.88 1080.55C1186.08 1099.42 1230.44 1130.94 1272.64 1142.03C1298.69 1148.9 1323.95 1148.04 1341.76 1129.14C1359.14 1110.73 1352.83 1087.56 1338.74 1065.03C1315.2 1027.37 1269.21 991.596 1252.13 978.346C1204.63 941.536 1064.3 864.044 938.122 828.968ZM723.265 958.576C726.901 972.537 731.81 987.022 737.678 1001.85C796.795 1151.07 958.124 1333.12 1013.68 1380.94C1037.88 1401.78 1081.67 1440.92 1125.32 1457.05C1152.2 1467.02 1179.06 1468.12 1200.25 1448C1212.38 1436.47 1216.45 1421.35 1215.18 1404.35C1213.84 1385.9 1206.35 1365.41 1195.58 1344.51C1162.23 1279.74 1097.12 1211.64 1072.37 1188.51C1007.18 1127.53 868.973 1028.46 723.265 958.576ZM276.099 1187.74C318.163 1375.68 438.673 1504.5 587.609 1632.52C612.948 1654.27 676.66 1705.28 736.925 1730.15C756.401 1738.17 775.462 1743.49 792.692 1743.92C808.681 1744.3 822.999 1740.46 834.126 1730.11C846.871 1718.28 851.378 1702.53 850.484 1684.71C849.494 1665.47 842.353 1643.97 831.873 1622.05C799.457 1554.26 735.037 1482.86 711.314 1460.38C586.738 1342.36 436.396 1249.49 276.099 1187.74Z"/>
</mask>
<path fill-rule="evenodd" clip-rule="evenodd" d="M259.789 1181.61C300.643 1377.85 424.156 1511.3 578.071 1643.6C604.064 1665.94 669.48 1718.17 731.331 1743.66C775.063 1761.69 817.125 1765.82 844.051 1740.81C867.6 1718.96 869.751 1686.51 858.837 1650.52C835.149 1572.37 749.839 1476.74 721.38 1449.76C593.146 1328.26 437.934 1233.13 272.536 1170.74C270.185 1158.65 268.137 1146.28 266.413 1133.65C261.281 1095.61 259.045 1049.77 267.274 1007.62C275.261 966.66 293.128 929.114 328.564 906.416C402.49 859.038 514.401 875.413 630.441 918.782C655.738 928.215 681.191 938.966 706.542 950.672C710.399 968.803 716.365 987.767 724.1 1007.28C784.097 1158.7 947.742 1343.49 1004.14 1392.03C1029.25 1413.65 1074.91 1454.04 1120.21 1470.77C1152.59 1482.74 1184.78 1482.81 1210.28 1458.58C1233.01 1437.01 1234.44 1405.69 1222.9 1371.08C1197.97 1296.35 1112.05 1205.56 1082.37 1177.82C1014.92 1114.73 870.224 1011.31 719.179 940.43C712.343 903.793 715.409 871.522 733.379 847.163C758.36 813.271 806.737 806.394 864.001 813.545C881.272 815.708 899.338 819.153 917.801 823.661C918.619 825.045 919.436 826.388 920.254 827.772C986.608 938.338 1099.62 1047.98 1153.63 1091.88C1178 1111.69 1224.62 1144.51 1268.86 1156.17C1300.44 1164.46 1330.79 1162.02 1352.37 1139.15C1374.54 1115.67 1369.1 1085.99 1351.15 1057.23C1326.62 1018.03 1278.91 980.586 1261.1 966.798C1210.97 927.929 1059.3 844.662 927.384 811C908.504 778.22 894.071 745.508 887.143 714.642C879.782 682.07 880.781 651.591 894.226 625.554C927.446 561.362 1005.06 554.695 1091.38 573.637C1117.66 579.405 1144.75 587.59 1171.73 597.453C1171.46 626.238 1179.96 658.241 1194.58 690.845C1229.05 767.656 1297.09 848.117 1357.87 896.501C1378.83 913.202 1416.67 940.099 1452.61 948.667C1478.6 954.877 1503.6 951.665 1521.86 930.73C1544.06 905.307 1541.97 874.558 1528.18 844.268C1508.95 802.153 1466.78 760.921 1444.73 738.935C1401.4 695.791 1295.82 629.008 1186.73 587.48C1187.88 575.768 1190.87 564.793 1196.01 554.732C1215.29 516.837 1264.44 493.483 1356.59 494.304C1401.21 494.722 1445.68 499.796 1488.27 513.19C1549.66 532.468 1603.44 563.012 1656.6 598.533C1659.96 600.759 1664.51 599.872 1666.74 596.504C1669 593.156 1668.11 588.591 1664.75 586.365C1610.44 550.069 1555.4 518.939 1492.67 499.241C1448.71 485.429 1402.81 480.125 1356.77 479.683C1256.47 478.791 1203.98 506.886 1182.97 548.114C1177.62 558.656 1174.29 570.116 1172.74 582.293C1146.47 572.825 1120.15 564.97 1094.55 559.37C1000.78 538.787 917.319 549.146 881.253 618.873C854.619 670.381 870.987 737.898 908.072 806.411C893.631 803.262 879.515 800.746 865.872 799.043C802.387 791.109 749.305 800.944 721.619 838.484C703.189 863.497 698.292 896.127 703.442 933.182C680.834 922.954 658.142 913.492 635.577 905.083C514.594 859.882 397.791 844.713 320.688 894.12C289.468 914.12 270.377 944.401 259.486 978.846C243.675 1029.05 245.519 1088.17 251.949 1135.65C253.277 1145.52 254.808 1155.26 256.542 1164.82C238.006 1158.1 219.356 1151.76 200.592 1145.87C154.191 1131.28 97.8217 1115.65 43.8316 1115.01C6.94251 1114.59 -28.8323 1121.13 -59.8462 1139.35C-104.299 1165.39 -121.909 1206.81 -124.71 1252.1C-127.441 1295.92 -116.133 1343.39 -102.628 1383.22C-43.5189 1557.55 79.3175 1707.09 254.168 1774.99C257.903 1776.44 262.138 1774.57 263.621 1770.81C265.083 1767.07 263.247 1762.82 259.471 1761.37C88.7095 1695.05 -31.0535 1548.77 -88.7852 1378.49C-101.734 1340.36 -112.725 1294.93 -110.136 1252.95C-107.614 1212.49 -92.2423 1175.23 -52.4999 1151.95C-16.4487 1130.8 26.583 1126.96 69.7812 1131.08C114.015 1135.29 158.448 1147.93 196.186 1159.82C217.533 1166.55 238.768 1173.82 259.789 1181.61ZM1186.25 602.894C1187.01 628.303 1195.11 656.285 1207.92 684.824C1241.47 759.633 1307.79 837.928 1366.98 885.051C1386.74 900.772 1422.2 926.41 1456.02 934.456C1476.54 939.344 1496.47 937.653 1510.88 921.142C1529.02 900.334 1526.15 875.147 1514.86 850.352C1496.38 809.871 1455.6 770.441 1434.39 749.301C1392.56 707.667 1291.45 643.638 1186.25 602.894ZM938.122 828.968C1004.12 934.954 1111.05 1038.42 1162.88 1080.55C1186.08 1099.42 1230.44 1130.94 1272.64 1142.03C1298.69 1148.9 1323.95 1148.04 1341.76 1129.14C1359.14 1110.73 1352.83 1087.56 1338.74 1065.03C1315.2 1027.37 1269.21 991.596 1252.13 978.346C1204.63 941.536 1064.3 864.044 938.122 828.968ZM723.265 958.576C726.901 972.537 731.81 987.022 737.678 1001.85C796.795 1151.07 958.124 1333.12 1013.68 1380.94C1037.88 1401.78 1081.67 1440.92 1125.32 1457.05C1152.2 1467.02 1179.06 1468.12 1200.25 1448C1212.38 1436.47 1216.45 1421.35 1215.18 1404.35C1213.84 1385.9 1206.35 1365.41 1195.58 1344.51C1162.23 1279.74 1097.12 1211.64 1072.37 1188.51C1007.18 1127.53 868.973 1028.46 723.265 958.576ZM276.099 1187.74C318.163 1375.68 438.673 1504.5 587.609 1632.52C612.948 1654.27 676.66 1705.28 736.925 1730.15C756.401 1738.17 775.462 1743.49 792.692 1743.92C808.681 1744.3 822.999 1740.46 834.126 1730.11C846.871 1718.28 851.378 1702.53 850.484 1684.71C849.494 1665.47 842.353 1643.97 831.873 1622.05C799.457 1554.26 735.037 1482.86 711.314 1460.38C586.738 1342.36 436.396 1249.49 276.099 1187.74Z" fill="url(#paint0_linear_110_13548)"/>
<path fill-rule="evenodd" clip-rule="evenodd" d="M259.789 1181.61C300.643 1377.85 424.156 1511.3 578.071 1643.6C604.064 1665.94 669.48 1718.17 731.331 1743.66C775.063 1761.69 817.125 1765.82 844.051 1740.81C867.6 1718.96 869.751 1686.51 858.837 1650.52C835.149 1572.37 749.839 1476.74 721.38 1449.76C593.146 1328.26 437.934 1233.13 272.536 1170.74C270.185 1158.65 268.137 1146.28 266.413 1133.65C261.281 1095.61 259.045 1049.77 267.274 1007.62C275.261 966.66 293.128 929.114 328.564 906.416C402.49 859.038 514.401 875.413 630.441 918.782C655.738 928.215 681.191 938.966 706.542 950.672C710.399 968.803 716.365 987.767 724.1 1007.28C784.097 1158.7 947.742 1343.49 1004.14 1392.03C1029.25 1413.65 1074.91 1454.04 1120.21 1470.77C1152.59 1482.74 1184.78 1482.81 1210.28 1458.58C1233.01 1437.01 1234.44 1405.69 1222.9 1371.08C1197.97 1296.35 1112.05 1205.56 1082.37 1177.82C1014.92 1114.73 870.224 1011.31 719.179 940.43C712.343 903.793 715.409 871.522 733.379 847.163C758.36 813.271 806.737 806.394 864.001 813.545C881.272 815.708 899.338 819.153 917.801 823.661C918.619 825.045 919.436 826.388 920.254 827.772C986.608 938.338 1099.62 1047.98 1153.63 1091.88C1178 1111.69 1224.62 1144.51 1268.86 1156.17C1300.44 1164.46 1330.79 1162.02 1352.37 1139.15C1374.54 1115.67 1369.1 1085.99 1351.15 1057.23C1326.62 1018.03 1278.91 980.586 1261.1 966.798C1210.97 927.929 1059.3 844.662 927.384 811C908.504 778.22 894.071 745.508 887.143 714.642C879.782 682.07 880.781 651.591 894.226 625.554C927.446 561.362 1005.06 554.695 1091.38 573.637C1117.66 579.405 1144.75 587.59 1171.73 597.453C1171.46 626.238 1179.96 658.241 1194.58 690.845C1229.05 767.656 1297.09 848.117 1357.87 896.501C1378.83 913.202 1416.67 940.099 1452.61 948.667C1478.6 954.877 1503.6 951.665 1521.86 930.73C1544.06 905.307 1541.97 874.558 1528.18 844.268C1508.95 802.153 1466.78 760.921 1444.73 738.935C1401.4 695.791 1295.82 629.008 1186.73 587.48C1187.88 575.768 1190.87 564.793 1196.01 554.732C1215.29 516.837 1264.44 493.483 1356.59 494.304C1401.21 494.722 1445.68 499.796 1488.27 513.19C1549.66 532.468 1603.44 563.012 1656.6 598.533C1659.96 600.759 1664.51 599.872 1666.74 596.504C1669 593.156 1668.11 588.591 1664.75 586.365C1610.44 550.069 1555.4 518.939 1492.67 499.241C1448.71 485.429 1402.81 480.125 1356.77 479.683C1256.47 478.791 1203.98 506.886 1182.97 548.114C1177.62 558.656 1174.29 570.116 1172.74 582.293C1146.47 572.825 1120.15 564.97 1094.55 559.37C1000.78 538.787 917.319 549.146 881.253 618.873C854.619 670.381 870.987 737.898 908.072 806.411C893.631 803.262 879.515 800.746 865.872 799.043C802.387 791.109 749.305 800.944 721.619 838.484C703.189 863.497 698.292 896.127 703.442 933.182C680.834 922.954 658.142 913.492 635.577 905.083C514.594 859.882 397.791 844.713 320.688 894.12C289.468 914.12 270.377 944.401 259.486 978.846C243.675 1029.05 245.519 1088.17 251.949 1135.65C253.277 1145.52 254.808 1155.26 256.542 1164.82C238.006 1158.1 219.356 1151.76 200.592 1145.87C154.191 1131.28 97.8217 1115.65 43.8316 1115.01C6.94251 1114.59 -28.8323 1121.13 -59.8462 1139.35C-104.299 1165.39 -121.909 1206.81 -124.71 1252.1C-127.441 1295.92 -116.133 1343.39 -102.628 1383.22C-43.5189 1557.55 79.3175 1707.09 254.168 1774.99C257.903 1776.44 262.138 1774.57 263.621 1770.81C265.083 1767.07 263.247 1762.82 259.471 1761.37C88.7095 1695.05 -31.0535 1548.77 -88.7852 1378.49C-101.734 1340.36 -112.725 1294.93 -110.136 1252.95C-107.614 1212.49 -92.2423 1175.23 -52.4999 1151.95C-16.4487 1130.8 26.583 1126.96 69.7812 1131.08C114.015 1135.29 158.448 1147.93 196.186 1159.82C217.533 1166.55 238.768 1173.82 259.789 1181.61ZM1186.25 602.894C1187.01 628.303 1195.11 656.285 1207.92 684.824C1241.47 759.633 1307.79 837.928 1366.98 885.051C1386.74 900.772 1422.2 926.41 1456.02 934.456C1476.54 939.344 1496.47 937.653 1510.88 921.142C1529.02 900.334 1526.15 875.147 1514.86 850.352C1496.38 809.871 1455.6 770.441 1434.39 749.301C1392.56 707.667 1291.45 643.638 1186.25 602.894ZM938.122 828.968C1004.12 934.954 1111.05 1038.42 1162.88 1080.55C1186.08 1099.42 1230.44 1130.94 1272.64 1142.03C1298.69 1148.9 1323.95 1148.04 1341.76 1129.14C1359.14 1110.73 1352.83 1087.56 1338.74 1065.03C1315.2 1027.37 1269.21 991.596 1252.13 978.346C1204.63 941.536 1064.3 864.044 938.122 828.968ZM723.265 958.576C726.901 972.537 731.81 987.022 737.678 1001.85C796.795 1151.07 958.124 1333.12 1013.68 1380.94C1037.88 1401.78 1081.67 1440.92 1125.32 1457.05C1152.2 1467.02 1179.06 1468.12 1200.25 1448C1212.38 1436.47 1216.45 1421.35 1215.18 1404.35C1213.84 1385.9 1206.35 1365.41 1195.58 1344.51C1162.23 1279.74 1097.12 1211.64 1072.37 1188.51C1007.18 1127.53 868.973 1028.46 723.265 958.576ZM276.099 1187.74C318.163 1375.68 438.673 1504.5 587.609 1632.52C612.948 1654.27 676.66 1705.28 736.925 1730.15C756.401 1738.17 775.462 1743.49 792.692 1743.92C808.681 1744.3 822.999 1740.46 834.126 1730.11C846.871 1718.28 851.378 1702.53 850.484 1684.71C849.494 1665.47 842.353 1643.97 831.873 1622.05C799.457 1554.26 735.037 1482.86 711.314 1460.38C586.738 1342.36 436.396 1249.49 276.099 1187.74Z" stroke="url(#paint1_linear_110_13548)" stroke-width="110" mask="url(#path-1-outside-1_110_13548)"/>
<defs>
<linearGradient id="paint0_linear_110_13548" x1="536.343" y1="698.155" x2="1367.59" y2="1391.56" gradientUnits="userSpaceOnUse">
<stop stop-color="#E6FCFD"/>
<stop offset="1" stop-color="white"/>
</linearGradient>
<linearGradient id="paint1_linear_110_13548" x1="385.237" y1="663.571" x2="1215.56" y2="1453.16" gradientUnits="userSpaceOnUse">
<stop stop-color="#E6FCFD"/>
<stop offset="1" stop-color="white"/>
</linearGradient>
</defs>
</svg>
