<svg width="1440" height="1244" viewBox="0 0 1440 1244" fill="none" xmlns="http://www.w3.org/2000/svg">
<g filter="url(#filter0_f_114_5782)">
<path fill-rule="evenodd" clip-rule="evenodd" d="M1441.19 282.633C1554.34 188.027 1687.61 84.7979 1827.54 12.1783C1947.14 -49.8797 2071.5 -89.7081 2192.01 -79.6932C2208.99 -78.29 2223.93 -90.9442 2225.31 -107.953C2226.71 -124.955 2214.04 -139.913 2197.05 -141.328C2065.6 -152.237 1929.52 -110.423 1799.06 -42.7206C1656.62 31.1952 1520.75 135.861 1405.24 232.154C1376.22 207.762 1331.69 192.695 1266.29 195.87C1165.84 200.742 1048.6 252.725 933.042 325.596C765.441 431.272 600.601 580.13 496.521 680.172C492.246 684.265 485.966 690.549 478.402 698.519C472.829 693.509 466.956 688.739 460.793 684.231C407.214 644.886 334.654 625.917 273.109 634.791C-117.214 691.095 -472.489 985.098 -761.775 1224.43C-774.83 1235.26 -776.655 1254.76 -765.869 1267.95C-754.969 1281.09 -735.525 1282.97 -722.357 1272.09C-441.192 1039.46 -97.3588 750.737 282.038 695.977C328.737 689.246 383.617 704.213 424.262 734.08C428.823 737.4 433.09 740.971 437.274 744.659C401.624 787.298 361.858 842.377 347.839 888.796C333.401 936.413 342.271 976.575 383.382 1000.13C418.649 1020.21 453.358 1007.99 481.519 977.183C511.912 944.081 533.707 888.33 538.283 864.649C546.907 820.384 538.204 780.296 518.142 746.293C527.167 736.736 534.639 729.293 539.297 724.815C641.106 626.974 802.133 481.263 966.011 377.925C1071.45 311.427 1177.68 262.08 1269.34 257.624C1308.44 255.732 1337.12 260.969 1356.74 273.049C1336.17 290.542 1316.39 307.549 1297.5 323.792C1260.13 355.918 1179.86 417.181 1132.74 484.234C1095.26 537.551 1079.11 594.784 1104.27 646.586C1117.19 673.202 1140.76 684.395 1170.11 683.586C1213.95 682.365 1275.07 646.79 1296.79 631.171C1362.68 583.83 1431.62 477.379 1447.99 384.352C1454.53 347.231 1452.73 312.192 1441.19 282.633ZM1389.27 326.541C1371.46 341.742 1354.29 356.527 1337.78 370.719C1302.91 400.711 1227.29 457.23 1183.29 519.844C1159.99 552.993 1144.18 587.388 1159.83 619.602C1161.05 622.105 1163.89 621.722 1166.58 621.785C1170.73 621.867 1175.16 621.232 1179.74 620.244C1210.77 613.561 1246.54 591.135 1260.73 580.929C1316.01 541.206 1373.41 451.617 1387.15 373.559C1390.05 357.07 1391.12 341.104 1389.27 326.541ZM473.716 796.908C453.149 822.275 432.597 851.055 418.568 878.713C411.121 893.4 405.603 907.564 403.868 920.512C402.376 931.246 404.141 940.794 414.034 946.42C418.01 948.713 421.771 947.141 425.339 944.818C429.112 942.35 432.661 939.062 436.025 935.355C458.282 911.069 474.304 870.133 477.611 852.779C481.567 832.6 479.7 813.91 473.716 796.908Z" fill="#B0F7F9" stroke="#B0F7F9" stroke-width="47"/>
</g>
<defs>
<filter id="filter0_f_114_5782" x="-860.399" y="-230.553" width="3173.32" height="1597.22" filterUnits="userSpaceOnUse" color-interpolation-filters="sRGB">
<feFlood flood-opacity="0" result="BackgroundImageFix"/>
<feBlend mode="normal" in="SourceGraphic" in2="BackgroundImageFix" result="shape"/>
<feGaussianBlur stdDeviation="32" result="effect1_foregroundBlur_114_5782"/>
</filter>
</defs>
</svg>
