<svg width="1440" height="1541" viewBox="0 0 1440 1541" fill="none" xmlns="http://www.w3.org/2000/svg">
<mask id="path-1-outside-1_114_3690" maskUnits="userSpaceOnUse" x="-438.242" y="-66.4525" width="2220.33" height="1674.93" fill="black">
<rect fill="white" x="-438.242" y="-66.4525" width="2220.33" height="1674.93"/>
<path fill-rule="evenodd" clip-rule="evenodd" d="M292.076 367.096C143.608 501.765 91.1568 675.873 55.0999 875.611C49.0186 909.338 37.1454 992.199 46.5169 1058.44C53.1318 1105.28 70.8915 1143.63 106.1 1154.17C136.863 1163.4 165.931 1148.8 191.426 1121.16C246.796 1061.13 286.001 939.123 294.839 900.914C334.594 728.793 337.937 546.783 307.901 372.579C317.135 364.423 326.761 356.389 336.773 348.504C366.971 324.797 405.353 299.641 445.857 285.375C485.217 271.503 526.639 267.877 564.164 286.923C642.473 326.642 685.07 431.416 706.49 553.43C711.179 580.018 714.809 607.409 717.566 635.195C703.891 647.71 690.565 662.463 677.662 679.021C577.53 807.481 501.164 1042.2 487.899 1115.42C481.991 1148.02 470.309 1207.86 478.838 1255.38C484.93 1289.37 501.183 1317.15 534.993 1326.85C565.108 1335.52 592.833 1320.88 616.819 1293.39C668.608 1234.03 703.337 1113.94 712.208 1074.3C732.414 984.186 748.243 807.031 732.799 640.9C760.919 616.44 790.292 602.728 820.399 605.874C862.276 610.234 892.721 648.453 915.577 701.443C922.465 717.428 928.651 734.748 934.12 752.949C933.342 754.356 932.599 755.741 931.82 757.148C870.131 870.382 832.878 1023.37 822.414 1092.18C817.679 1123.23 813.011 1180.05 825.386 1224.1C834.239 1255.52 851.729 1280.45 882.376 1287.47C913.851 1294.68 936.69 1274.95 952.376 1244.9C973.74 1203.88 981.846 1143.78 984.705 1121.44C992.806 1058.52 987.726 885.574 949.892 754.795C968.583 721.907 989.468 692.886 1012.57 671.271C1036.92 648.419 1063.7 633.834 1092.96 632.229C1165.13 628.335 1210.21 691.864 1237.62 775.876C1245.97 801.459 1252.64 828.958 1257.82 857.217C1232.86 871.568 1209.58 895.119 1188.88 924.243C1140.14 992.884 1105.26 1092.32 1094.35 1169.23C1090.57 1195.77 1086.56 1242.02 1097.39 1277.35C1105.21 1302.9 1120.65 1322.82 1147.95 1327.95C1181.11 1334.21 1206.56 1316.83 1225.68 1289.58C1252.25 1251.67 1266.42 1194.42 1274.2 1164.26C1289.43 1105.04 1293.5 980.186 1274.02 865.094C1284.7 860.151 1295.67 857.165 1306.95 856.496C1349.39 853.916 1394.43 884.449 1440.42 964.309C1462.68 1002.99 1480.83 1043.89 1490.87 1087.39C1505.37 1150.09 1506.29 1211.93 1502.61 1275.76C1502.39 1279.78 1505.46 1283.25 1509.5 1283.47C1513.53 1283.72 1517.01 1280.64 1517.23 1276.62C1520.99 1211.4 1519.94 1148.18 1505.13 1084.12C1494.76 1039.22 1476.07 996.969 1453.12 957.049C1403.05 870.129 1352.23 839.119 1306.05 841.905C1294.25 842.632 1282.68 845.571 1271.4 850.403C1266.25 822.958 1259.68 796.292 1251.53 771.386C1221.75 680.111 1170.53 613.414 1092.14 617.659C1034.24 620.802 984.33 669.129 944.061 735.82C939.457 721.775 934.473 708.331 929.027 695.707C903.694 636.958 868.314 596.181 821.921 591.339C791.018 588.126 760.406 600.441 731.073 623.66C728.433 598.987 725.089 574.629 720.903 550.914C698.557 423.712 652.44 315.331 570.774 273.902C537.71 257.123 501.93 256.011 466.717 264.079C415.423 275.892 365.393 307.443 327.719 337.048C319.885 343.193 312.267 349.448 304.899 355.791C301.297 336.407 297.314 317.114 292.879 297.955C281.945 250.558 266.853 194.042 240.046 147.173C221.712 115.16 197.944 87.6338 166.522 70.1295C121.546 45.0043 76.9093 50.8174 36.4478 71.3547C-2.71183 91.2065 -37.9079 125.015 -65.3987 156.842C-185.73 296.146 -252.387 477.821 -222.316 662.969C-221.674 666.923 -217.915 669.627 -213.921 668.999C-209.956 668.364 -207.222 664.627 -207.886 660.637C-237.252 479.818 -171.836 302.438 -54.3039 166.377C-27.9974 135.892 5.60208 103.39 43.0999 84.3497C79.2608 66.0167 119.166 60.3896 159.382 82.8485C195.879 103.212 220.997 138.363 239.341 177.689C258.127 217.957 269.747 262.667 278.622 301.226C283.641 323.037 288.138 345.027 292.076 367.096ZM1260.48 872.488C1238.96 886.023 1218.95 907.186 1200.83 932.689C1153.35 999.527 1119.46 1096.38 1108.84 1171.29C1105.3 1196.29 1101.16 1239.85 1111.37 1273.09C1117.55 1293.25 1129.11 1309.57 1150.65 1313.63C1177.78 1318.72 1198.04 1303.49 1213.69 1281.19C1239.22 1244.74 1252.55 1189.6 1260.02 1160.6C1274.72 1103.44 1278.68 983.834 1260.48 872.488ZM939.844 773.158C881.923 883.764 846.921 1028.38 836.864 1094.41C832.352 1123.98 827.661 1178.19 839.491 1220.19C846.767 1246.13 860.312 1267.47 885.629 1273.24C910.311 1278.9 927.088 1261.72 939.369 1238.15C959.902 1198.77 967.436 1141 970.204 1119.56C977.864 1059.95 973.552 899.711 939.844 773.158ZM719.227 653.618C709.034 663.828 699.035 675.4 689.223 687.975C590.55 814.557 515.362 1045.9 502.292 1118.02C496.598 1149.44 485.049 1207.04 493.258 1252.84C498.287 1281.06 510.949 1304.78 539.037 1312.85C555.125 1317.46 570.22 1313.31 584.234 1303.6C599.455 1293.09 613.327 1276.25 625.89 1256.37C664.819 1194.79 690.526 1104.16 697.925 1071.1C717.459 983.999 732.823 814.646 719.227 653.618ZM295.051 384.267C154.353 515.772 104.374 684.944 69.4926 878.214C63.5813 911.082 51.8927 991.859 60.9943 1056.42C63.953 1077.27 69.0265 1096.4 77.3896 1111.47C85.1661 1125.44 95.7296 1135.84 110.287 1140.19C126.949 1145.18 142.811 1141.08 157.718 1131.28C173.804 1120.68 188.716 1103.63 202.304 1083.48C244.316 1021.18 273.221 929.465 280.577 897.622C319.187 730.417 323.06 553.744 295.051 384.267Z"/>
</mask>
<path fill-rule="evenodd" clip-rule="evenodd" d="M292.076 367.096C143.608 501.765 91.1568 675.873 55.0999 875.611C49.0186 909.338 37.1454 992.199 46.5169 1058.44C53.1318 1105.28 70.8915 1143.63 106.1 1154.17C136.863 1163.4 165.931 1148.8 191.426 1121.16C246.796 1061.13 286.001 939.123 294.839 900.914C334.594 728.793 337.937 546.783 307.901 372.579C317.135 364.423 326.761 356.389 336.773 348.504C366.971 324.797 405.353 299.641 445.857 285.375C485.217 271.503 526.639 267.877 564.164 286.923C642.473 326.642 685.07 431.416 706.49 553.43C711.179 580.018 714.809 607.409 717.566 635.195C703.891 647.71 690.565 662.463 677.662 679.021C577.53 807.481 501.164 1042.2 487.899 1115.42C481.991 1148.02 470.309 1207.86 478.838 1255.38C484.93 1289.37 501.183 1317.15 534.993 1326.85C565.108 1335.52 592.833 1320.88 616.819 1293.39C668.608 1234.03 703.337 1113.94 712.208 1074.3C732.414 984.186 748.243 807.031 732.799 640.9C760.919 616.44 790.292 602.728 820.399 605.874C862.276 610.234 892.721 648.453 915.577 701.443C922.465 717.428 928.651 734.748 934.12 752.949C933.342 754.356 932.599 755.741 931.82 757.148C870.131 870.382 832.878 1023.37 822.414 1092.18C817.679 1123.23 813.011 1180.05 825.386 1224.1C834.239 1255.52 851.729 1280.45 882.376 1287.47C913.851 1294.68 936.69 1274.95 952.376 1244.9C973.74 1203.88 981.846 1143.78 984.705 1121.44C992.806 1058.52 987.726 885.574 949.892 754.795C968.583 721.907 989.468 692.886 1012.57 671.271C1036.92 648.419 1063.7 633.834 1092.96 632.229C1165.13 628.335 1210.21 691.864 1237.62 775.876C1245.97 801.459 1252.64 828.958 1257.82 857.217C1232.86 871.568 1209.58 895.119 1188.88 924.243C1140.14 992.884 1105.26 1092.32 1094.35 1169.23C1090.57 1195.77 1086.56 1242.02 1097.39 1277.35C1105.21 1302.9 1120.65 1322.82 1147.95 1327.95C1181.11 1334.21 1206.56 1316.83 1225.68 1289.58C1252.25 1251.67 1266.42 1194.42 1274.2 1164.26C1289.43 1105.04 1293.5 980.186 1274.02 865.094C1284.7 860.151 1295.67 857.165 1306.95 856.496C1349.39 853.916 1394.43 884.449 1440.42 964.309C1462.68 1002.99 1480.83 1043.89 1490.87 1087.39C1505.37 1150.09 1506.29 1211.93 1502.61 1275.76C1502.39 1279.78 1505.46 1283.25 1509.5 1283.47C1513.53 1283.72 1517.01 1280.64 1517.23 1276.62C1520.99 1211.4 1519.94 1148.18 1505.13 1084.12C1494.76 1039.22 1476.07 996.969 1453.12 957.049C1403.05 870.129 1352.23 839.119 1306.05 841.905C1294.25 842.632 1282.68 845.571 1271.4 850.403C1266.25 822.958 1259.68 796.292 1251.53 771.386C1221.75 680.111 1170.53 613.414 1092.14 617.659C1034.24 620.802 984.33 669.129 944.061 735.82C939.457 721.775 934.473 708.331 929.027 695.707C903.694 636.958 868.314 596.181 821.921 591.339C791.018 588.126 760.406 600.441 731.073 623.66C728.433 598.987 725.089 574.629 720.903 550.914C698.557 423.712 652.44 315.331 570.774 273.902C537.71 257.123 501.93 256.011 466.717 264.079C415.423 275.892 365.393 307.443 327.719 337.048C319.885 343.193 312.267 349.448 304.899 355.791C301.297 336.407 297.314 317.114 292.879 297.955C281.945 250.558 266.853 194.042 240.046 147.173C221.712 115.16 197.944 87.6338 166.522 70.1295C121.546 45.0043 76.9093 50.8174 36.4478 71.3547C-2.71183 91.2065 -37.9079 125.015 -65.3987 156.842C-185.73 296.146 -252.387 477.821 -222.316 662.969C-221.674 666.923 -217.915 669.627 -213.921 668.999C-209.956 668.364 -207.222 664.627 -207.886 660.637C-237.252 479.818 -171.836 302.438 -54.3039 166.377C-27.9974 135.892 5.60208 103.39 43.0999 84.3497C79.2608 66.0167 119.166 60.3896 159.382 82.8485C195.879 103.212 220.997 138.363 239.341 177.689C258.127 217.957 269.747 262.667 278.622 301.226C283.641 323.037 288.138 345.027 292.076 367.096ZM1260.48 872.488C1238.96 886.023 1218.95 907.186 1200.83 932.689C1153.35 999.527 1119.46 1096.38 1108.84 1171.29C1105.3 1196.29 1101.16 1239.85 1111.37 1273.09C1117.55 1293.25 1129.11 1309.57 1150.65 1313.63C1177.78 1318.72 1198.04 1303.49 1213.69 1281.19C1239.22 1244.74 1252.55 1189.6 1260.02 1160.6C1274.72 1103.44 1278.68 983.834 1260.48 872.488ZM939.844 773.158C881.923 883.764 846.921 1028.38 836.864 1094.41C832.352 1123.98 827.661 1178.19 839.491 1220.19C846.767 1246.13 860.312 1267.47 885.629 1273.24C910.311 1278.9 927.088 1261.72 939.369 1238.15C959.902 1198.77 967.436 1141 970.204 1119.56C977.864 1059.95 973.552 899.711 939.844 773.158ZM719.227 653.618C709.034 663.828 699.035 675.4 689.223 687.975C590.55 814.557 515.362 1045.9 502.292 1118.02C496.598 1149.44 485.049 1207.04 493.258 1252.84C498.287 1281.06 510.949 1304.78 539.037 1312.85C555.125 1317.46 570.22 1313.31 584.234 1303.6C599.455 1293.09 613.327 1276.25 625.89 1256.37C664.819 1194.79 690.526 1104.16 697.925 1071.1C717.459 983.999 732.823 814.646 719.227 653.618ZM295.051 384.267C154.353 515.772 104.374 684.944 69.4926 878.214C63.5813 911.082 51.8927 991.859 60.9943 1056.42C63.953 1077.27 69.0265 1096.4 77.3896 1111.47C85.1661 1125.44 95.7296 1135.84 110.287 1140.19C126.949 1145.18 142.811 1141.08 157.718 1131.28C173.804 1120.68 188.716 1103.63 202.304 1083.48C244.316 1021.18 273.221 929.465 280.577 897.622C319.187 730.417 323.06 553.744 295.051 384.267Z" fill="url(#paint0_linear_114_3690)"/>
<path fill-rule="evenodd" clip-rule="evenodd" d="M292.076 367.096C143.608 501.765 91.1568 675.873 55.0999 875.611C49.0186 909.338 37.1454 992.199 46.5169 1058.44C53.1318 1105.28 70.8915 1143.63 106.1 1154.17C136.863 1163.4 165.931 1148.8 191.426 1121.16C246.796 1061.13 286.001 939.123 294.839 900.914C334.594 728.793 337.937 546.783 307.901 372.579C317.135 364.423 326.761 356.389 336.773 348.504C366.971 324.797 405.353 299.641 445.857 285.375C485.217 271.503 526.639 267.877 564.164 286.923C642.473 326.642 685.07 431.416 706.49 553.43C711.179 580.018 714.809 607.409 717.566 635.195C703.891 647.71 690.565 662.463 677.662 679.021C577.53 807.481 501.164 1042.2 487.899 1115.42C481.991 1148.02 470.309 1207.86 478.838 1255.38C484.93 1289.37 501.183 1317.15 534.993 1326.85C565.108 1335.52 592.833 1320.88 616.819 1293.39C668.608 1234.03 703.337 1113.94 712.208 1074.3C732.414 984.186 748.243 807.031 732.799 640.9C760.919 616.44 790.292 602.728 820.399 605.874C862.276 610.234 892.721 648.453 915.577 701.443C922.465 717.428 928.651 734.748 934.12 752.949C933.342 754.356 932.599 755.741 931.82 757.148C870.131 870.382 832.878 1023.37 822.414 1092.18C817.679 1123.23 813.011 1180.05 825.386 1224.1C834.239 1255.52 851.729 1280.45 882.376 1287.47C913.851 1294.68 936.69 1274.95 952.376 1244.9C973.74 1203.88 981.846 1143.78 984.705 1121.44C992.806 1058.52 987.726 885.574 949.892 754.795C968.583 721.907 989.468 692.886 1012.57 671.271C1036.92 648.419 1063.7 633.834 1092.96 632.229C1165.13 628.335 1210.21 691.864 1237.62 775.876C1245.97 801.459 1252.64 828.958 1257.82 857.217C1232.86 871.568 1209.58 895.119 1188.88 924.243C1140.14 992.884 1105.26 1092.32 1094.35 1169.23C1090.57 1195.77 1086.56 1242.02 1097.39 1277.35C1105.21 1302.9 1120.65 1322.82 1147.95 1327.95C1181.11 1334.21 1206.56 1316.83 1225.68 1289.58C1252.25 1251.67 1266.42 1194.42 1274.2 1164.26C1289.43 1105.04 1293.5 980.186 1274.02 865.094C1284.7 860.151 1295.67 857.165 1306.95 856.496C1349.39 853.916 1394.43 884.449 1440.42 964.309C1462.68 1002.99 1480.83 1043.89 1490.87 1087.39C1505.37 1150.09 1506.29 1211.93 1502.61 1275.76C1502.39 1279.78 1505.46 1283.25 1509.5 1283.47C1513.53 1283.72 1517.01 1280.64 1517.23 1276.62C1520.99 1211.4 1519.94 1148.18 1505.13 1084.12C1494.76 1039.22 1476.07 996.969 1453.12 957.049C1403.05 870.129 1352.23 839.119 1306.05 841.905C1294.25 842.632 1282.68 845.571 1271.4 850.403C1266.25 822.958 1259.68 796.292 1251.53 771.386C1221.75 680.111 1170.53 613.414 1092.14 617.659C1034.24 620.802 984.33 669.129 944.061 735.82C939.457 721.775 934.473 708.331 929.027 695.707C903.694 636.958 868.314 596.181 821.921 591.339C791.018 588.126 760.406 600.441 731.073 623.66C728.433 598.987 725.089 574.629 720.903 550.914C698.557 423.712 652.44 315.331 570.774 273.902C537.71 257.123 501.93 256.011 466.717 264.079C415.423 275.892 365.393 307.443 327.719 337.048C319.885 343.193 312.267 349.448 304.899 355.791C301.297 336.407 297.314 317.114 292.879 297.955C281.945 250.558 266.853 194.042 240.046 147.173C221.712 115.16 197.944 87.6338 166.522 70.1295C121.546 45.0043 76.9093 50.8174 36.4478 71.3547C-2.71183 91.2065 -37.9079 125.015 -65.3987 156.842C-185.73 296.146 -252.387 477.821 -222.316 662.969C-221.674 666.923 -217.915 669.627 -213.921 668.999C-209.956 668.364 -207.222 664.627 -207.886 660.637C-237.252 479.818 -171.836 302.438 -54.3039 166.377C-27.9974 135.892 5.60208 103.39 43.0999 84.3497C79.2608 66.0167 119.166 60.3896 159.382 82.8485C195.879 103.212 220.997 138.363 239.341 177.689C258.127 217.957 269.747 262.667 278.622 301.226C283.641 323.037 288.138 345.027 292.076 367.096ZM1260.48 872.488C1238.96 886.023 1218.95 907.186 1200.83 932.689C1153.35 999.527 1119.46 1096.38 1108.84 1171.29C1105.3 1196.29 1101.16 1239.85 1111.37 1273.09C1117.55 1293.25 1129.11 1309.57 1150.65 1313.63C1177.78 1318.72 1198.04 1303.49 1213.69 1281.19C1239.22 1244.74 1252.55 1189.6 1260.02 1160.6C1274.72 1103.44 1278.68 983.834 1260.48 872.488ZM939.844 773.158C881.923 883.764 846.921 1028.38 836.864 1094.41C832.352 1123.98 827.661 1178.19 839.491 1220.19C846.767 1246.13 860.312 1267.47 885.629 1273.24C910.311 1278.9 927.088 1261.72 939.369 1238.15C959.902 1198.77 967.436 1141 970.204 1119.56C977.864 1059.95 973.552 899.711 939.844 773.158ZM719.227 653.618C709.034 663.828 699.035 675.4 689.223 687.975C590.55 814.557 515.362 1045.9 502.292 1118.02C496.598 1149.44 485.049 1207.04 493.258 1252.84C498.287 1281.06 510.949 1304.78 539.037 1312.85C555.125 1317.46 570.22 1313.31 584.234 1303.6C599.455 1293.09 613.327 1276.25 625.89 1256.37C664.819 1194.79 690.526 1104.16 697.925 1071.1C717.459 983.999 732.823 814.646 719.227 653.618ZM295.051 384.267C154.353 515.772 104.374 684.944 69.4926 878.214C63.5813 911.082 51.8927 991.859 60.9943 1056.42C63.953 1077.27 69.0265 1096.4 77.3896 1111.47C85.1661 1125.44 95.7296 1135.84 110.287 1140.19C126.949 1145.18 142.811 1141.08 157.718 1131.28C173.804 1120.68 188.716 1103.63 202.304 1083.48C244.316 1021.18 273.221 929.465 280.577 897.622C319.187 730.417 323.06 553.744 295.051 384.267Z" stroke="url(#paint1_linear_114_3690)" stroke-width="110" mask="url(#path-1-outside-1_114_3690)"/>
<defs>
<linearGradient id="paint0_linear_114_3690" x1="849" y1="360.5" x2="672.5" y2="1428.5" gradientUnits="userSpaceOnUse">
<stop stop-color="#E6FCFD"/>
<stop offset="1" stop-color="white"/>
</linearGradient>
<linearGradient id="paint1_linear_114_3690" x1="802.236" y1="212.71" x2="542.343" y2="1328.66" gradientUnits="userSpaceOnUse">
<stop stop-color="#E6FCFD"/>
<stop offset="1" stop-color="white"/>
</linearGradient>
</defs>
</svg>
